<svg version="1.1" id="Capa_1" xmlns="http://www.w3.org/2000/svg"
	xmlns:xlink="http://www.w3.org/1999/xlink" x="0px" y="0px"
	width="374.569px" height="254.135px" viewBox="0 0 374.569 254.135"
	enable-background="new 0 0 374.569 254.135"
	xml:space="preserve">
<g>
	<defs>
		<rect id="SVGID_1_" width="374.569" height="254.135"/>
	</defs>
	<clipPath id="SVGID_2_">
		<use xlink:href="#SVGID_1_"  overflow="visible"/>
	</clipPath>
	<path clip-path="url(#SVGID_2_)" fill="#183092" d="M106.926,63.05c-0.393,0-0.798-0.007-1.213-0.02
		c-0.416-0.014-0.752-0.025-1.01-0.034c-0.807,0-1.502-0.121-2.083-0.364c-0.582-0.243-1.059-0.594-1.43-1.053
		c-0.321-0.359-0.53-0.733-0.626-1.12c-0.144-0.495-0.201-1.181-0.173-2.058c0.029-0.878,0.153-1.946,0.374-3.206l0.368-2.105
		c0.124-0.711,0.282-1.352,0.474-1.923c0.191-0.572,0.425-1.122,0.701-1.654c0.612-1.188,1.642-2.015,3.089-2.483
		c0.529-0.171,1.442-0.302,2.737-0.392c1.295-0.089,2.986-0.134,5.073-0.134h3.794c2.656,0,4.409,0.147,5.26,0.445
		c1.725,0.594,2.552,1.852,2.485,3.775c-0.016,0.261-0.049,0.613-0.097,1.053c-0.049,0.441-0.111,0.876-0.186,1.307l-0.424,2.671
		c-0.197,1.124-0.398,2.029-0.606,2.717c-0.206,0.688-0.5,1.324-0.88,1.909c-0.556,0.871-1.285,1.534-2.185,1.988
		c-0.902,0.454-1.967,0.681-3.197,0.681l-2.686,0.041L106.926,63.05z M114.37,58.907c0.836,0,1.471-0.027,1.904-0.081
		c0.718-0.091,1.274-0.411,1.668-0.96c0.394-0.55,0.749-1.726,1.065-3.528c0.16-0.92,0.229-1.582,0.204-1.988
		c-0.022-0.756-0.372-1.23-1.05-1.42c-0.222-0.053-0.478-0.103-0.769-0.148c-0.29-0.045-0.579-0.067-0.868-0.067l-3.371-0.028
		h-1.904c-0.298,0-0.7,0.005-1.207,0.014c-0.506,0.009-0.818,0.014-0.933,0.014c-0.432,0-0.811,0.07-1.134,0.211
		c-0.322,0.14-0.608,0.349-0.86,0.63c-0.384,0.435-0.768,1.749-1.151,3.941c-0.269,1.54-0.17,2.509,0.299,2.908
		c0.331,0.308,1.376,0.461,3.137,0.461L114.37,58.907z"/>
	<path clip-path="url(#SVGID_2_)" fill="#183092" d="M142.745,46.693c0.577,0,0.972,0.007,1.187,0.02
		c0.213,0.014,0.528,0.043,0.943,0.088c1.59,0.153,2.594,0.701,3.016,1.645c0.158,0.362,0.255,0.74,0.293,1.135
		c0.018,0.387,0.017,0.781-0.006,1.181c-0.021,0.4-0.07,0.812-0.143,1.234c-0.235,1.341-0.603,2.345-1.104,3.01
		c-0.502,0.667-1.509,1.202-3.022,1.606c1.385,0.379,2.207,0.839,2.463,1.384c0.255,0.544,0.261,1.518,0.015,2.922l-0.346,1.984
		h-5.281l0.218-1.498c0.178-1.016,0.165-1.682-0.04-1.998c-0.227-0.351-0.879-0.526-1.956-0.526H130.6l-0.704,4.022h-5.28
		l2.836-16.209H142.745z M132,50.877l-0.668,3.819h7.386h0.801h0.873c0.221,0,0.423-0.014,0.606-0.041
		c0.182-0.027,0.357-0.077,0.524-0.149c0.566-0.217,0.935-0.807,1.103-1.767c0.114-0.653,0.016-1.138-0.294-1.456
		c-0.236-0.244-0.749-0.366-1.538-0.366l-1.536-0.04H132z"/>
	<path clip-path="url(#SVGID_2_)" fill="#183092" d="M155.418,63.05c-0.393,0-0.798-0.007-1.213-0.02
		c-0.416-0.014-0.752-0.025-1.01-0.034c-0.807,0-1.502-0.121-2.083-0.364c-0.582-0.243-1.059-0.594-1.43-1.053
		c-0.321-0.359-0.53-0.733-0.626-1.12c-0.144-0.495-0.201-1.181-0.173-2.058c0.029-0.878,0.153-1.946,0.374-3.206l0.368-2.105
		c0.124-0.711,0.282-1.352,0.474-1.923c0.191-0.572,0.425-1.122,0.701-1.654c0.612-1.188,1.642-2.015,3.089-2.483
		c0.529-0.171,1.442-0.302,2.737-0.392c1.295-0.089,2.986-0.134,5.073-0.134h3.794c2.656,0,4.409,0.147,5.26,0.445
		c1.725,0.594,2.552,1.852,2.485,3.775c-0.016,0.261-0.049,0.613-0.097,1.053c-0.049,0.441-0.111,0.876-0.186,1.307l-0.424,2.671
		c-0.197,1.124-0.398,2.029-0.606,2.717c-0.206,0.688-0.5,1.324-0.88,1.909c-0.556,0.871-1.285,1.534-2.185,1.988
		c-0.902,0.454-1.967,0.681-3.197,0.681l-2.686,0.041L155.418,63.05z M162.862,58.907c0.836,0,1.471-0.027,1.904-0.081
		c0.718-0.091,1.274-0.411,1.668-0.96c0.394-0.55,0.749-1.726,1.065-3.528c0.16-0.92,0.229-1.582,0.204-1.988
		c-0.022-0.756-0.372-1.23-1.05-1.42c-0.222-0.053-0.478-0.103-0.769-0.148c-0.29-0.045-0.579-0.067-0.868-0.067l-3.371-0.028
		h-1.904c-0.298,0-0.7,0.005-1.207,0.014c-0.506,0.009-0.818,0.014-0.933,0.014c-0.432,0-0.811,0.07-1.134,0.211
		c-0.322,0.14-0.608,0.349-0.86,0.63c-0.384,0.435-0.768,1.749-1.151,3.941c-0.269,1.54-0.17,2.509,0.299,2.908
		c0.331,0.308,1.376,0.461,3.137,0.461L162.862,58.907z"/>
	<polygon clip-path="url(#SVGID_2_)" fill="#183092" points="184.196,46.693 192.064,58.787 194.18,46.693 199.461,46.693 
		196.625,62.902 188.228,62.902 180.364,50.783 178.244,62.902 172.964,62.902 175.8,46.693 	"/>
	<path clip-path="url(#SVGID_2_)" fill="#183092" d="M210.159,46.694h6.709l6.729,16.209h-5.986l-1.13-2.781h-10.691l-2.044,2.781
		h-5.987L210.159,46.694z M208.557,56.343h6.436l-2.178-5.533L208.557,56.343z"/>
	<path clip-path="url(#SVGID_2_)" fill="#2E58A6" d="M288.771,57.056c-0.124,0.709-0.01,1.162,0.343,1.364
		c0.13,0.068,0.324,0.121,0.583,0.162c0.258,0.041,0.597,0.062,1.017,0.062l1.228,0.033h3.182h1.151c0.879,0,1.379-0.348,1.5-1.043
		c0.104-0.585-0.139-0.922-0.724-1.012l-0.869-0.055l-0.87-0.044l-2.595-0.101l-1.258-0.066l-2.166-0.111
		c-0.341,0-0.646-0.009-0.915-0.027c-0.271-0.018-0.628-0.068-1.072-0.15c-1.194-0.185-1.85-0.759-1.965-1.721
		c-0.074-0.534-0.057-1.111,0.053-1.732c0.197-1.126,0.451-1.945,0.762-2.455c0.513-0.844,1.218-1.401,2.121-1.671
		c0.902-0.271,2.694-0.407,5.376-0.407c0.492,0,1.189,0.016,2.094,0.045c0.905,0.03,1.567,0.045,1.986,0.045
		c0.896,0,1.666,0.059,2.314,0.177c0.647,0.119,1.176,0.282,1.583,0.488c0.464,0.239,0.793,0.597,0.985,1.078
		c0.193,0.482,0.227,1.085,0.1,1.81l-0.157,0.899h-4.345l0.015-0.488c-0.021-0.436-0.219-0.722-0.599-0.855
		c-0.022-0.006-0.115-0.022-0.277-0.044c-0.309-0.044-0.622-0.067-0.938-0.067l-1.168-0.044h-2.54l-1.134,0.033
		c-0.308,0-0.6,0.042-0.876,0.124c-0.502,0.104-0.797,0.415-0.887,0.931c-0.092,0.524,0.143,0.857,0.704,0.998
		c0.114,0.023,0.264,0.046,0.451,0.068c0.185,0.022,0.35,0.034,0.492,0.034h1.128l3.979,0.122l2.31,0.089
		c0.31,0,0.61,0.027,0.905,0.083c0.295,0.055,0.59,0.132,0.882,0.227c1.338,0.445,1.822,1.722,1.453,3.831
		c-0.408,2.333-1.784,3.639-4.128,3.921c-0.145,0.015-0.349,0.033-0.615,0.055c-0.265,0.022-0.479,0.034-0.646,0.034
		c-0.437,0-0.997,0.009-1.686,0.026c-0.687,0.018-1.091,0.027-1.21,0.027c-0.142,0-0.798-0.015-1.969-0.043
		c-1.17-0.029-2.075-0.044-2.716-0.044c-0.27,0-0.538-0.006-0.804-0.019c-0.268-0.012-0.532-0.036-0.796-0.069
		c-0.602,0-1.127-0.082-1.577-0.245c-0.451-0.162-0.829-0.385-1.137-0.666c-0.252-0.237-0.429-0.583-0.529-1.038
		c-0.103-0.455-0.101-0.994,0.009-1.616l0.116-0.933H288.771z"/>
	<polygon clip-path="url(#SVGID_2_)" fill="#2E58A6" points="307.692,57.844 307.04,61.575 302.86,61.575 303.514,57.844 	"/>
	<path clip-path="url(#SVGID_2_)" fill="#2E58A6" d="M317.964,48.239h5.521l5.536,13.336h-4.928l-0.928-2.287h-8.798l-1.683,2.287
		h-4.926L317.964,48.239z M316.646,56.178h5.295l-1.791-4.553L316.646,56.178z"/>
	<polygon clip-path="url(#SVGID_2_)" fill="#2E58A6" points="334.986,57.844 334.335,61.575 330.156,61.575 330.808,57.844 	"/>
	<polygon clip-path="url(#SVGID_2_)" fill="#FF0000" points="229.037,46.396 233.447,46.396 238.986,54.843 240.464,46.396 
		245.107,46.396 242.312,62.377 238.169,62.377 232.418,53.611 230.884,62.377 226.241,62.377 	"/>
	<polygon clip-path="url(#SVGID_2_)" fill="#FF0000" points="270.13,50.277 265.024,50.277 265.704,46.396 280.631,46.396 
		279.952,50.277 274.847,50.277 272.729,62.377 268.014,62.377 	"/>
	<polygon clip-path="url(#SVGID_2_)" fill="#FF0000" points="263.91,46.396 247.216,46.396 246.475,50.208 263.169,50.208 	"/>
	<polygon clip-path="url(#SVGID_2_)" fill="#FF0000" points="261.544,58.565 244.851,58.565 244.109,62.377 260.804,62.377 	"/>
	<polygon clip-path="url(#SVGID_2_)" fill="#FF0000" points="262.727,52.48 246.033,52.48 245.292,56.292 261.986,56.292 	"/>
	<path clip-path="url(#SVGID_2_)" fill="#183092" d="M94.756,33.512c-0.725,1.38-1.539,2.714-2.23,4.106
		c-1.092,2.202-2.315,4.334-3.402,6.537c-0.489,0.991-1.034,1.955-1.556,2.93c-0.653,1.219-1.304,2.439-1.963,3.654
		c-0.356,0.655-0.768,1.283-1.088,1.955c-1.178,2.474-2.372,4.941-4.021,7.146c-1.294,1.73-2.917,3.045-5.018,3.693
		c-1.5,0.464-3.047,0.543-4.601,0.552c-1.991,0.011-3.982,0.028-5.97-0.12c-2.276-0.342-3.856-1.539-4.58-3.761
		c-0.193-0.595-0.365-1.207-0.453-1.824c-0.571-4.046-0.92-8.116-1.373-12.176c-0.443-3.976-0.849-7.956-1.278-11.933
		c-0.088-0.828-0.514-1.277-1.33-1.455c-1.379-0.298-2.226,0.278-2.558,1.792c-0.523,2.384-1.022,4.774-1.53,7.161
		c-0.736,3.461-1.477,6.92-2.2,10.383c-0.078,0.376-0.225,0.533-0.621,0.622c-1.783,0.4-2.989,1.976-2.963,3.793
		c0.026,1.766,1.27,3.287,2.982,3.645c1.829,0.383,3.597-0.483,4.324-2.118c0.744-1.671,0.271-3.591-1.212-4.658
		c-0.383-0.275-0.426-0.514-0.336-0.931c1.108-5.178,2.2-10.361,3.298-15.541c0.02-0.094,0.021-0.217,0.248-0.172
		c0.119,1.265,0.226,2.551,0.362,3.835c0.475,4.479,0.949,8.958,1.449,13.434c0.223,1.997,0.318,4.015,0.85,5.966
		c0.5,1.833,1.273,3.518,2.879,4.659c1.574,1.12,3.383,1.508,5.282,1.563c0.203,0.161,0.446,0.107,0.668,0.102
		c2.2-0.04,4.4,0.081,6.601-0.095c2.799-0.223,5.199-1.294,7.266-3.167c1.11-1.006,1.93-2.251,2.744-3.477
		c1.731-2.607,2.95-5.506,4.502-8.218c0.62-1.084,1.181-2.2,1.753-3.311c1.398-2.712,2.898-5.371,4.282-8.093
		c0.308-0.607,0.57-1.277,1.064-1.79c0.16,0.128,0.121,0.265,0.099,0.376c-0.356,1.78-0.658,3.575-1.097,5.335
		c-0.528,2.109-0.926,4.245-1.371,6.369c-0.565,2.7-1.219,5.384-1.691,8.102c-0.138,0.794-0.522,1.09-1.221,1.331
		c-1.526,0.526-2.361,1.664-2.521,3.269c-0.16,1.624,0.527,2.922,1.872,3.711c1.75,1.027,4.096,0.751,5.443-1.568
		c0.756-1.3,0.658-3.571-1.124-4.875c-0.272-0.199-0.367-0.429-0.297-0.757c0.214-0.999,0.414-2.002,0.626-3.002
		c0.312-1.469,0.624-2.938,0.948-4.405c0.783-3.549,1.487-7.117,2.239-10.674c0.462-2.186,0.975-4.363,1.414-6.554
		c0.112-0.561,0.16-1.202-0.276-1.684C97.344,32.372,95.265,32.542,94.756,33.512 M49.889,58.08
		c-0.936,0.012-1.655-0.682-1.651-1.592c0.004-0.88,0.714-1.581,1.604-1.582c0.919-0.002,1.593,0.657,1.596,1.561
		C51.441,57.393,50.792,58.068,49.889,58.08 M91.136,64.872c-0.982,0.014-1.52-0.564-1.592-1.54c-0.066-0.91,0.788-1.56,1.515-1.595
		c0.805-0.038,1.55,0.711,1.556,1.542C92.623,64.205,92.016,64.859,91.136,64.872"/>
	<path clip-path="url(#SVGID_2_)" fill="#183092" d="M94.929,17.762c-0.985,0.345-1.651,1.049-2.036,2.002
		c-0.214,0.531-0.536,0.81-1.112,0.96c-1.189,0.312-2.208,0.975-3.103,1.815c-1.964,1.846-3.09,4.247-4.305,6.583
		c-1.368,2.631-2.707,5.279-4.042,7.928c-0.61,1.209-1.328,2.364-1.829,3.627c-0.166,0.129-0.235,0.306-0.251,0.509
		c-0.164,0.126-0.246,0.295-0.255,0.501c-0.076,0.025-0.109,0.08-0.106,0.159c-0.243,0.479-0.483,0.96-0.731,1.437
		c-1.516,2.917-3.033,5.835-4.556,8.749c-0.108,0.207-0.133,0.564-0.463,0.508c-0.337-0.056-0.229-0.405-0.251-0.629
		c-0.257-2.587-0.5-5.175-0.748-7.763c-0.4-4.172-0.789-8.347-1.209-12.518c-0.208-2.062-0.278-4.141-0.706-6.179
		c-0.423-2.019-1.267-3.731-3.323-4.553c-0.273-0.109-0.272-0.347-0.342-0.557c-0.443-1.341-1.263-2.245-2.692-2.62
		c-2.569-0.675-5.023,1.268-4.813,3.872c0.135,1.673,1.196,2.99,2.772,3.442c1.603,0.459,3.244-0.127,4.225-1.587
		c0.28-0.416,0.438-0.357,0.753-0.095c0.909,0.755,1.19,1.809,1.354,2.892c0.332,2.197,0.467,4.418,0.681,6.629
		c0.442,4.568,0.89,9.137,1.334,13.705c0.213,2.191,0.419,4.382,0.633,6.572c0.066,0.672,0.337,1.284,1.006,1.47
		c1.274,0.353,2.831,0.314,3.565-1.197c1.318-2.711,2.745-5.368,4.127-8.048c0.193-0.231,0.359-0.474,0.381-0.786
		c0.318-0.262,0.417-0.641,0.536-1.008c0.026-0.037,0.052-0.073,0.077-0.11c0.586-0.869,0.971-1.846,1.471-2.76
		c2.067-3.772,3.897-7.667,6.007-11.42c0.774-1.377,1.407-2.838,2.364-4.107c0.78-1.036,1.776-1.809,3.054-2.169
		c0.297-0.084,0.454-0.055,0.639,0.266c0.804,1.395,2.085,2.099,3.656,1.967c2.324-0.196,3.768-1.998,3.551-4.33
		C99.996,18.269,97.525,16.853,94.929,17.762 M61.907,22.949c-0.931,0.007-1.646-0.692-1.643-1.606
		c0.003-0.899,0.673-1.54,1.61-1.541c0.939-0.001,1.608,0.637,1.614,1.538C63.493,22.218,62.782,22.941,61.907,22.949
		 M96.345,22.936c-0.786-0.001-1.497-0.741-1.488-1.548c0.01-0.897,0.707-1.599,1.586-1.6c0.865-0.001,1.47,0.652,1.471,1.59
		C97.915,22.314,97.288,22.937,96.345,22.936"/>
	<path clip-path="url(#SVGID_2_)" fill="#183092" d="M104.925,25.099c1.281,0.344,2.837-0.261,3.687-1.435
		c0.443-0.613,0.584-0.605,1.068-0.029c0.712,0.849,0.569,1.847,0.497,2.816c-0.13,1.754-0.547,3.462-0.927,5.175
		c-0.492,2.224-0.969,4.451-1.421,6.684c-0.23,1.136-0.537,2.259-0.638,3.42c0.195,0.021,0.443,0.046,0.677,0.072
		c-0.767-0.168,0.106,0.002,0.521-0.026c0.368-0.025,0.734-0.053,1.103-0.067c0.236-1.087,0.467-2.176,0.7-3.264
		c0.643-3,1.253-6.008,1.92-9.003c0.367-1.65,0.519-3.316,0.336-4.981c-0.169-1.546-0.863-2.829-2.399-3.488
		c-0.417-0.179-0.686-0.484-0.871-0.926c-0.271-0.648-0.582-1.303-1.268-1.648c-1.324-1.036-2.926-1.149-4.339-0.308
		c-1.366,0.814-2.067,2.378-1.786,3.985C102.052,23.602,103.276,24.78,104.925,25.099 M104.883,19.901
		c0.84-0.29,1.764-0.155,2.208,0.85c0.193,1.065-0.044,1.565-1.028,2.168c0.299,0.298,0.41,0.647,0.454,1.017
		c-0.044-0.37-0.155-0.719-0.454-1.017c-0.038,0.003-0.076,0.008-0.114,0.016l-0.638,0.019c-0.821-0.215-1.303-0.722-1.366-1.439
		C103.883,20.818,104.239,20.123,104.883,19.901"/>
	<path clip-path="url(#SVGID_2_)" fill="#183092" d="M47.592,23.216c0.469-0.256,0.745-0.166,1.015,0.295
		c0.524,0.894,1.359,1.441,2.344,1.641c2.554,0.517,4.899-1.464,4.734-4.038c-0.107-1.686-1.527-3.539-3.654-3.631
		c-1.708-0.074-3.317,1.08-3.9,2.659c-0.166,0.448-0.445,0.624-0.871,0.785c-1.462,0.551-2.648,1.459-3.377,2.885
		c-0.039,0.051-0.078,0.102-0.116,0.153c-0.563,0.92-0.947,1.915-1.247,2.945c-0.668,2.295-1.084,4.648-1.58,6.983
		c-0.745,3.511-1.506,7.018-2.258,10.527c-1.009,4.701-2.018,9.403-3.023,14.106c-0.135,0.632-0.231,1.061-1.116,1.23
		c-1.893,0.362-3.019,2.637-2.488,4.575c0.536,1.955,2.569,3.204,4.465,2.747c1.551-0.373,2.578-1.331,2.937-2.865
		c0.377-1.616-0.155-2.985-1.497-3.98c-0.294-0.218-0.356-0.393-0.265-0.722c0.393-1.436,0.576-2.916,0.902-4.369
		c0.993-4.412,1.914-8.841,2.854-13.265c0.858-4.038,1.704-8.078,2.556-12.117c0.182-0.324,0.265-0.67,0.243-1.04
		c0.156-0.133,0.191-0.328,0.224-0.507c0.138-0.746,0.401-1.454,0.696-2.146C45.679,24.871,46.414,23.859,47.592,23.216
		 M51.849,19.782c0.826,0.016,1.473,0.696,1.478,1.553c0.005,0.871-0.67,1.582-1.512,1.592c-0.853,0.009-1.624-0.716-1.618-1.519
		C50.205,20.493,50.945,19.764,51.849,19.782 M35.787,64.951c-0.912,0.012-1.664-0.756-1.647-1.683
		c0.016-0.822,0.748-1.534,1.591-1.546c0.909-0.013,1.62,0.696,1.621,1.615C37.353,64.217,36.651,64.939,35.787,64.951
		 M43.383,28.223c-0.003,0.081-0.044,0.123-0.126,0.125C43.339,28.346,43.38,28.304,43.383,28.223
		c0.245,0.008,0.35-0.145,0.406-0.353c-0.018-0.016-0.035-0.033-0.052-0.05c0.017,0.017,0.034,0.034,0.052,0.05
		c0.182-0.007,0.295,0.024,0.364,0.079c-0.069-0.055-0.182-0.085-0.363-0.079C43.733,28.078,43.628,28.231,43.383,28.223"/>
	<path clip-path="url(#SVGID_2_)" fill="#FF0000" d="M254.886,87.69H91.417c-4.233,0-7.364-3.431-6.993-7.664
		c0.37-4.232,4.101-7.663,8.334-7.663h163.469c4.231,0,7.362,3.431,6.991,7.663C262.85,84.26,259.118,87.69,254.886,87.69"/>
	<polygon clip-path="url(#SVGID_2_)" fill="#FFFFFF" points="97.872,76.343 100.431,76.343 99.679,84.933 97.121,84.933 	"/>
	<polygon clip-path="url(#SVGID_2_)" fill="#FFFFFF" points="101.454,76.343 103.833,76.343 107.222,80.884 107.619,76.343 
		110.124,76.343 109.372,84.933 107.138,84.933 103.62,80.22 103.207,84.933 100.703,84.933 	"/>
	<polygon clip-path="url(#SVGID_2_)" fill="#FFFFFF" points="113.156,78.429 110.401,78.429 110.583,76.343 118.637,76.343 
		118.455,78.429 115.7,78.429 115.131,84.933 112.587,84.933 	"/>
	<polygon clip-path="url(#SVGID_2_)" fill="#FFFFFF" points="119.096,76.343 126.467,76.343 126.29,78.368 121.424,78.368 
		121.31,79.668 125.717,79.668 125.553,81.546 121.146,81.546 121.027,82.908 125.958,82.908 125.782,84.933 118.345,84.933 	"/>
	<path clip-path="url(#SVGID_2_)" fill="#FFFFFF" d="M127.188,76.343h4.342c0.708,0,1.299,0.082,1.775,0.246
		c0.475,0.163,0.853,0.393,1.133,0.687c0.499,0.491,0.713,1.157,0.639,2l-0.003,0.024c-0.057,0.663-0.276,1.211-0.655,1.645
		c-0.379,0.433-0.867,0.764-1.464,0.994l1.929,2.994h-2.939l-1.622-2.602h-0.026h-1.088l-0.228,2.602h-2.545L127.188,76.343z
		 M131.052,80.466c0.437,0,0.781-0.092,1.034-0.276c0.252-0.184,0.392-0.432,0.419-0.743l0.002-0.024
		c0.03-0.344-0.07-0.599-0.3-0.768c-0.23-0.167-0.56-0.251-0.988-0.251h-1.666l-0.18,2.062H131.052z"/>
	<polygon clip-path="url(#SVGID_2_)" fill="#FFFFFF" points="135.964,76.343 138.343,76.343 141.732,80.884 142.129,76.343 
		144.634,76.343 143.882,84.933 141.648,84.933 138.13,80.22 137.717,84.933 135.213,84.933 	"/>
	<polygon clip-path="url(#SVGID_2_)" fill="#FFFFFF" points="145.604,76.343 152.976,76.343 152.798,78.368 147.933,78.368 
		147.818,79.668 152.226,79.668 152.062,81.546 147.654,81.546 147.536,82.908 152.467,82.908 152.291,84.933 144.854,84.933 	"/>
	<polygon clip-path="url(#SVGID_2_)" fill="#FFFFFF" points="155.759,78.429 153.004,78.429 153.186,76.343 161.24,76.343 
		161.058,78.429 158.303,78.429 157.734,84.933 155.19,84.933 	"/>
	<polygon clip-path="url(#SVGID_2_)" fill="#FFFFFF" points="164.677,76.343 172.022,76.343 171.841,78.429 167.04,78.429 
		166.913,79.877 171.254,79.877 171.08,81.865 166.739,81.865 166.47,84.933 163.926,84.933 	"/>
	<polygon clip-path="url(#SVGID_2_)" fill="#FFFFFF" points="172.572,76.343 175.131,76.343 174.379,84.933 171.821,84.933 	"/>
	<path clip-path="url(#SVGID_2_)" fill="#FFFFFF" d="M176.153,76.343h4.701c0.577,0,1.064,0.066,1.463,0.196
		c0.399,0.131,0.722,0.324,0.971,0.577c0.167,0.172,0.294,0.373,0.379,0.601c0.085,0.23,0.114,0.491,0.088,0.786l-0.002,0.025
		c-0.043,0.499-0.212,0.901-0.503,1.208c-0.293,0.307-0.65,0.542-1.073,0.706c0.546,0.172,0.97,0.42,1.271,0.743
		c0.3,0.322,0.425,0.774,0.374,1.354l-0.002,0.026c-0.065,0.744-0.42,1.325-1.064,1.742c-0.644,0.418-1.517,0.626-2.619,0.626
		h-4.735L176.153,76.343z M180.016,83.018c0.393,0,0.701-0.066,0.923-0.202c0.222-0.135,0.343-0.329,0.365-0.583l0.002-0.024
		c0.021-0.238-0.063-0.425-0.252-0.564c-0.189-0.14-0.497-0.209-0.926-0.209h-1.942l-0.138,1.582H180.016z M179.933,79.767
		c0.394,0,0.699-0.062,0.915-0.184c0.215-0.124,0.335-0.311,0.357-0.565l0.003-0.024c0.02-0.238-0.06-0.419-0.242-0.546
		c-0.181-0.126-0.464-0.191-0.848-0.191h-1.654l-0.132,1.51H179.933z"/>
	<path clip-path="url(#SVGID_2_)" fill="#FFFFFF" d="M184.876,76.343h4.342c0.708,0,1.3,0.082,1.775,0.246
		c0.475,0.163,0.853,0.393,1.133,0.687c0.499,0.491,0.713,1.157,0.64,2l-0.004,0.024c-0.057,0.663-0.275,1.211-0.654,1.645
		c-0.379,0.433-0.867,0.764-1.464,0.994l1.929,2.994h-2.939l-1.622-2.602h-0.025h-1.088l-0.228,2.602h-2.545L184.876,76.343z
		 M188.739,80.466c0.437,0,0.781-0.092,1.034-0.276c0.252-0.184,0.392-0.432,0.419-0.743l0.002-0.024
		c0.03-0.344-0.07-0.599-0.3-0.768c-0.23-0.167-0.561-0.251-0.988-0.251h-1.666l-0.18,2.062H188.739z"/>
	<path clip-path="url(#SVGID_2_)" fill="#FFFFFF" d="M196.831,76.283h2.452l3.152,8.65h-2.728l-0.535-1.534h-3.542l-0.789,1.534
		h-2.676L196.831,76.283z M198.6,81.558l-0.81-2.441l-1.25,2.441H198.6z"/>
	<path clip-path="url(#SVGID_2_)" fill="#FFFFFF" d="M210.252,85.104c-0.709,0-1.354-0.116-1.938-0.349
		c-0.583-0.235-1.075-0.55-1.477-0.951c-0.403-0.401-0.705-0.871-0.907-1.412c-0.202-0.54-0.276-1.117-0.223-1.729l0.003-0.025
		c0.053-0.614,0.229-1.193,0.525-1.737s0.686-1.018,1.168-1.424c0.481-0.404,1.033-0.723,1.657-0.956
		c0.624-0.233,1.289-0.35,1.998-0.35c0.708,0,1.354,0.117,1.937,0.35c0.584,0.233,1.076,0.55,1.479,0.951
		c0.401,0.4,0.704,0.872,0.905,1.412c0.202,0.539,0.277,1.115,0.223,1.729l-0.002,0.025c-0.054,0.613-0.229,1.192-0.525,1.736
		c-0.297,0.544-0.687,1.018-1.167,1.423c-0.481,0.406-1.034,0.723-1.657,0.958C211.627,84.988,210.96,85.104,210.252,85.104
		 M210.46,82.957c0.35,0,0.676-0.062,0.976-0.185c0.3-0.122,0.561-0.288,0.779-0.497c0.221-0.208,0.4-0.451,0.538-0.729
		c0.139-0.279,0.221-0.573,0.248-0.883l0.002-0.025c0.027-0.311-0.003-0.606-0.093-0.884c-0.089-0.279-0.231-0.524-0.422-0.737
		c-0.193-0.211-0.427-0.381-0.706-0.508c-0.278-0.126-0.593-0.191-0.943-0.191s-0.674,0.062-0.969,0.185
		c-0.296,0.123-0.557,0.288-0.781,0.496c-0.224,0.209-0.404,0.452-0.537,0.73c-0.134,0.279-0.215,0.574-0.242,0.884l-0.002,0.025
		c-0.026,0.31,0.004,0.605,0.095,0.882c0.09,0.279,0.228,0.525,0.416,0.737c0.187,0.214,0.419,0.383,0.697,0.51
		C209.795,82.893,210.109,82.957,210.46,82.957 M211.753,73.496l2.26,0.699l-2.064,1.572h-1.758L211.753,73.496z"/>
	<path clip-path="url(#SVGID_2_)" fill="#FFFFFF" d="M216.646,76.342h3.935c0.577,0,1.097,0.068,1.557,0.204
		c0.461,0.134,0.845,0.33,1.156,0.588c0.309,0.257,0.537,0.575,0.684,0.952c0.146,0.376,0.198,0.801,0.156,1.276l-0.002,0.024
		c-0.044,0.507-0.182,0.953-0.412,1.337c-0.23,0.385-0.532,0.708-0.904,0.97c-0.373,0.262-0.808,0.458-1.304,0.589
		c-0.497,0.131-1.03,0.195-1.598,0.195h-1.259l-0.216,2.455h-2.545L216.646,76.342z M220.022,80.613c0.455,0,0.82-0.101,1.097-0.303
		c0.275-0.201,0.428-0.474,0.458-0.82l0.003-0.024c0.032-0.371-0.072-0.652-0.313-0.845c-0.24-0.195-0.594-0.29-1.057-0.29h-1.193
		l-0.2,2.282H220.022z"/>
	<polygon clip-path="url(#SVGID_2_)" fill="#FFFFFF" points="226.878,78.429 224.123,78.429 224.306,76.343 232.359,76.343 
		232.178,78.429 229.423,78.429 228.854,84.933 226.31,84.933 	"/>
	<polygon clip-path="url(#SVGID_2_)" fill="#FFFFFF" points="232.87,76.343 235.429,76.343 234.677,84.933 232.119,84.933 	"/>
	<path clip-path="url(#SVGID_2_)" fill="#FFFFFF" d="M240.104,85.104c-0.655,0-1.263-0.11-1.82-0.331
		c-0.558-0.222-1.03-0.529-1.421-0.927c-0.389-0.396-0.685-0.866-0.886-1.411c-0.202-0.544-0.275-1.136-0.22-1.772l0.003-0.026
		c0.054-0.622,0.228-1.205,0.52-1.748c0.293-0.544,0.671-1.018,1.135-1.424c0.464-0.404,1.001-0.721,1.612-0.951
		c0.61-0.228,1.264-0.344,1.964-0.344c0.473,0,0.897,0.043,1.274,0.129c0.378,0.086,0.718,0.209,1.023,0.368
		c0.306,0.161,0.578,0.35,0.816,0.571c0.238,0.22,0.447,0.463,0.625,0.724l-2.036,1.387c-0.235-0.311-0.503-0.557-0.802-0.736
		c-0.299-0.181-0.671-0.27-1.117-0.27c-0.324,0-0.625,0.059-0.901,0.178c-0.276,0.118-0.521,0.28-0.73,0.484
		c-0.21,0.204-0.382,0.446-0.516,0.724c-0.134,0.278-0.215,0.573-0.241,0.884l-0.002,0.024c-0.028,0.319,0,0.619,0.085,0.902
		c0.085,0.283,0.214,0.526,0.388,0.73c0.175,0.204,0.39,0.366,0.646,0.484c0.256,0.12,0.546,0.179,0.87,0.179
		c0.236,0,0.454-0.024,0.655-0.074c0.201-0.049,0.387-0.121,0.557-0.214c0.17-0.095,0.333-0.204,0.488-0.332
		c0.155-0.126,0.311-0.268,0.463-0.423l1.804,1.277c-0.243,0.278-0.504,0.536-0.782,0.772c-0.279,0.237-0.59,0.441-0.933,0.613
		c-0.344,0.173-0.723,0.307-1.138,0.406C241.073,85.055,240.612,85.104,240.104,85.104"/>
	<path clip-path="url(#SVGID_2_)" fill="#FFFFFF" d="M248.551,76.283h2.452l3.152,8.65h-2.728l-0.535-1.534h-3.542l-0.789,1.534
		h-2.676L248.551,76.283z M250.319,81.558l-0.81-2.441l-1.25,2.441H250.319z"/>
	<path clip-path="url(#SVGID_2_)" fill="#183092" d="M100.384,63.304c0,0-3.216-0.861-1.962-5.673l1.841-8.139l0.72-2.554h-3.802
		l-2.324,12.534c0,0,1.921,2.436,1.528,3.832H100.384z"/>
	<rect x="11.66" y="116.189" clip-path="url(#SVGID_2_)" fill="#183092" width="353.94" height="129.743"/>
	<path clip-path="url(#SVGID_2_)" fill="#FFFFFF" d="M113.162,192.855c-0.393,0-0.798-0.007-1.213-0.02
		c-0.416-0.015-0.752-0.025-1.01-0.034c-0.807,0-1.502-0.121-2.083-0.364c-0.582-0.243-1.059-0.594-1.43-1.053
		c-0.321-0.359-0.53-0.733-0.626-1.12c-0.144-0.495-0.201-1.181-0.173-2.058c0.029-0.878,0.153-1.946,0.374-3.206l0.368-2.105
		c0.124-0.711,0.282-1.352,0.474-1.923c0.191-0.572,0.425-1.122,0.701-1.654c0.612-1.188,1.642-2.015,3.089-2.482
		c0.529-0.171,1.442-0.303,2.737-0.393c1.295-0.089,2.986-0.134,5.073-0.134h3.794c2.656,0,4.409,0.147,5.26,0.445
		c1.725,0.594,2.552,1.852,2.485,3.774c-0.016,0.262-0.049,0.613-0.097,1.054c-0.049,0.44-0.111,0.876-0.186,1.307l-0.424,2.671
		c-0.197,1.124-0.398,2.029-0.606,2.717c-0.206,0.688-0.5,1.324-0.88,1.909c-0.556,0.871-1.285,1.534-2.185,1.988
		c-0.902,0.454-1.967,0.681-3.197,0.681l-2.686,0.041L113.162,192.855z M120.605,188.713c0.836,0,1.471-0.027,1.904-0.081
		c0.718-0.091,1.274-0.411,1.668-0.96c0.394-0.55,0.749-1.727,1.065-3.528c0.16-0.92,0.229-1.582,0.204-1.988
		c-0.022-0.756-0.372-1.229-1.05-1.42c-0.222-0.053-0.478-0.103-0.769-0.147c-0.29-0.045-0.579-0.067-0.868-0.067l-3.371-0.028
		h-1.904c-0.298,0-0.7,0.006-1.207,0.015c-0.506,0.009-0.818,0.014-0.933,0.014c-0.432,0-0.811,0.07-1.134,0.211
		c-0.322,0.141-0.608,0.35-0.86,0.63c-0.384,0.436-0.768,1.749-1.151,3.941c-0.269,1.54-0.17,2.509,0.299,2.908
		c0.331,0.308,1.376,0.461,3.137,0.461L120.605,188.713z"/>
	<path clip-path="url(#SVGID_2_)" fill="#FFFFFF" d="M148.98,176.498c0.577,0,0.972,0.008,1.187,0.021
		c0.213,0.014,0.528,0.043,0.943,0.088c1.59,0.153,2.594,0.701,3.016,1.645c0.158,0.362,0.255,0.74,0.293,1.136
		c0.018,0.387,0.017,0.78-0.006,1.181c-0.021,0.4-0.07,0.812-0.143,1.234c-0.235,1.341-0.603,2.345-1.104,3.01
		c-0.502,0.667-1.509,1.202-3.022,1.605c1.385,0.379,2.207,0.84,2.463,1.385c0.255,0.544,0.261,1.518,0.015,2.922l-0.346,1.983
		h-5.281l0.218-1.498c0.178-1.016,0.165-1.682-0.04-1.998c-0.227-0.351-0.879-0.525-1.956-0.525h-8.382l-0.704,4.021h-5.28
		l2.836-16.209H148.98z M138.235,180.683l-0.668,3.818h7.386h0.801h0.873c0.221,0,0.423-0.014,0.606-0.041
		c0.182-0.026,0.357-0.076,0.524-0.148c0.566-0.217,0.935-0.808,1.103-1.768c0.114-0.652,0.016-1.138-0.294-1.456
		c-0.236-0.243-0.749-0.365-1.538-0.365l-1.536-0.04H138.235z"/>
	<path clip-path="url(#SVGID_2_)" fill="#FFFFFF" d="M161.654,192.855c-0.393,0-0.798-0.007-1.213-0.02
		c-0.416-0.015-0.752-0.025-1.01-0.034c-0.807,0-1.502-0.121-2.083-0.364c-0.582-0.243-1.059-0.594-1.43-1.053
		c-0.321-0.359-0.53-0.733-0.626-1.12c-0.144-0.495-0.201-1.181-0.173-2.058c0.029-0.878,0.153-1.946,0.374-3.206l0.368-2.105
		c0.124-0.711,0.282-1.352,0.474-1.923c0.191-0.572,0.425-1.122,0.701-1.654c0.612-1.188,1.642-2.015,3.089-2.482
		c0.529-0.171,1.442-0.303,2.737-0.393c1.295-0.089,2.986-0.134,5.073-0.134h3.794c2.656,0,4.409,0.147,5.26,0.445
		c1.725,0.594,2.552,1.852,2.485,3.774c-0.016,0.262-0.049,0.613-0.097,1.054c-0.049,0.44-0.111,0.876-0.186,1.307l-0.424,2.671
		c-0.197,1.124-0.398,2.029-0.606,2.717c-0.206,0.688-0.5,1.324-0.88,1.909c-0.556,0.871-1.285,1.534-2.185,1.988
		c-0.902,0.454-1.967,0.681-3.197,0.681l-2.686,0.041L161.654,192.855z M169.098,188.713c0.836,0,1.471-0.027,1.904-0.081
		c0.718-0.091,1.274-0.411,1.668-0.96c0.394-0.55,0.749-1.727,1.065-3.528c0.16-0.92,0.229-1.582,0.204-1.988
		c-0.022-0.756-0.372-1.229-1.05-1.42c-0.222-0.053-0.478-0.103-0.769-0.147c-0.29-0.045-0.579-0.067-0.868-0.067l-3.371-0.028
		h-1.904c-0.298,0-0.7,0.006-1.207,0.015c-0.506,0.009-0.818,0.014-0.933,0.014c-0.432,0-0.811,0.07-1.134,0.211
		c-0.322,0.141-0.608,0.35-0.86,0.63c-0.384,0.436-0.768,1.749-1.151,3.941c-0.269,1.54-0.17,2.509,0.299,2.908
		c0.331,0.308,1.376,0.461,3.137,0.461L169.098,188.713z"/>
	<polygon clip-path="url(#SVGID_2_)" fill="#FFFFFF" points="190.431,176.499 198.3,188.592 200.415,176.499 205.696,176.499 
		202.86,192.708 194.463,192.708 186.599,180.588 184.479,192.708 179.199,192.708 182.035,176.499 	"/>
	<path clip-path="url(#SVGID_2_)" fill="#FFFFFF" d="M216.395,176.499h6.709l6.729,16.209h-5.986l-1.13-2.781h-10.691l-2.044,2.781
		h-5.987L216.395,176.499z M214.792,186.148h6.436l-2.178-5.533L214.792,186.148z"/>
	<path clip-path="url(#SVGID_2_)" fill="#FFFFFF" d="M295.007,186.861c-0.124,0.709-0.01,1.162,0.344,1.363
		c0.13,0.068,0.324,0.121,0.583,0.162c0.257,0.041,0.595,0.063,1.016,0.063l1.229,0.033h3.182h1.151c0.879,0,1.378-0.349,1.5-1.043
		c0.103-0.585-0.14-0.923-0.725-1.013l-0.869-0.055l-0.87-0.044l-2.595-0.101l-1.258-0.066l-2.167-0.111
		c-0.34,0-0.645-0.009-0.914-0.026c-0.27-0.019-0.628-0.068-1.072-0.15c-1.194-0.185-1.85-0.759-1.965-1.721
		c-0.074-0.534-0.056-1.111,0.053-1.732c0.197-1.126,0.451-1.945,0.763-2.455c0.511-0.844,1.218-1.4,2.12-1.671
		s2.694-0.407,5.377-0.407c0.491,0,1.188,0.017,2.094,0.045c0.905,0.03,1.567,0.046,1.986,0.046c0.895,0,1.666,0.059,2.313,0.177
		c0.648,0.119,1.176,0.282,1.583,0.487c0.464,0.239,0.793,0.598,0.986,1.078c0.192,0.482,0.226,1.085,0.099,1.811l-0.157,0.898
		h-4.345l0.015-0.487c-0.02-0.437-0.219-0.723-0.599-0.855c-0.022-0.006-0.115-0.021-0.277-0.044
		c-0.31-0.044-0.621-0.067-0.938-0.067l-1.168-0.044h-2.54l-1.134,0.033c-0.309,0-0.601,0.042-0.876,0.124
		c-0.502,0.104-0.798,0.415-0.888,0.932c-0.092,0.523,0.143,0.856,0.704,0.997c0.113,0.023,0.265,0.047,0.451,0.068
		c0.186,0.022,0.351,0.034,0.493,0.034h1.127l3.979,0.122l2.311,0.089c0.309,0,0.61,0.027,0.905,0.083
		c0.295,0.055,0.589,0.132,0.881,0.227c1.339,0.445,1.823,1.723,1.454,3.831c-0.408,2.333-1.784,3.64-4.129,3.921
		c-0.145,0.016-0.349,0.033-0.614,0.056c-0.265,0.021-0.48,0.034-0.646,0.034c-0.436,0-0.997,0.009-1.685,0.025
		c-0.688,0.019-1.091,0.027-1.21,0.027c-0.143,0-0.798-0.015-1.969-0.043c-1.17-0.029-2.075-0.044-2.717-0.044
		c-0.27,0-0.537-0.006-0.804-0.02c-0.268-0.012-0.532-0.036-0.797-0.068c-0.601,0-1.127-0.082-1.576-0.245
		c-0.451-0.162-0.829-0.385-1.136-0.666c-0.252-0.237-0.429-0.583-0.53-1.038c-0.103-0.455-0.1-0.994,0.009-1.616l0.116-0.933
		H295.007z"/>
	<polygon clip-path="url(#SVGID_2_)" fill="#FFFFFF" points="313.929,187.649 313.275,191.38 309.097,191.38 309.75,187.649 	"/>
	<path clip-path="url(#SVGID_2_)" fill="#FFFFFF" d="M324.199,178.044h5.521l5.536,13.336h-4.927l-0.929-2.287h-8.797l-1.683,2.287
		h-4.926L324.199,178.044z M322.882,185.983h5.295l-1.792-4.554L322.882,185.983z"/>
	<polygon clip-path="url(#SVGID_2_)" fill="#FFFFFF" points="341.223,187.649 340.569,191.38 336.391,191.38 337.044,187.649 	"/>
	<polygon clip-path="url(#SVGID_2_)" fill="#FFFFFF" points="235.272,176.201 239.683,176.201 245.221,184.648 246.7,176.201 
		251.343,176.201 248.546,192.183 244.405,192.183 238.653,183.415 237.12,192.183 232.476,192.183 	"/>
	<polygon clip-path="url(#SVGID_2_)" fill="#FFFFFF" points="276.365,180.082 271.261,180.082 271.939,176.201 286.866,176.201 
		286.188,180.082 281.083,180.082 278.965,192.183 274.249,192.183 	"/>
	<polygon clip-path="url(#SVGID_2_)" fill="#FFFFFF" points="270.146,176.201 253.451,176.201 252.711,180.014 269.404,180.014 	"/>
	<polygon clip-path="url(#SVGID_2_)" fill="#FFFFFF" points="267.779,188.371 251.086,188.371 250.345,192.183 267.039,192.183 	"/>
	<polygon clip-path="url(#SVGID_2_)" fill="#FFFFFF" points="268.963,182.286 252.269,182.286 251.527,186.098 268.222,186.098 	"/>
	<path clip-path="url(#SVGID_2_)" fill="#FFFFFF" d="M100.991,163.317c-0.725,1.38-1.539,2.714-2.23,4.105
		c-1.092,2.202-2.315,4.334-3.402,6.538c-0.489,0.991-1.034,1.955-1.556,2.929c-0.653,1.221-1.304,2.439-1.963,3.654
		c-0.356,0.655-0.768,1.283-1.088,1.955c-1.178,2.474-2.372,4.942-4.021,7.146c-1.294,1.73-2.917,3.046-5.018,3.694
		c-1.5,0.463-3.047,0.542-4.6,0.551c-1.992,0.013-3.983,0.028-5.971-0.119c-2.276-0.342-3.856-1.539-4.579-3.761
		c-0.194-0.595-0.366-1.207-0.453-1.824c-0.572-4.046-0.921-8.116-1.374-12.176c-0.443-3.977-0.849-7.957-1.278-11.934
		c-0.088-0.827-0.514-1.277-1.33-1.454c-1.379-0.299-2.225,0.278-2.557,1.791c-0.524,2.385-1.022,4.773-1.531,7.162
		c-0.736,3.46-1.477,6.92-2.2,10.383c-0.078,0.375-0.225,0.532-0.62,0.621c-1.784,0.399-2.99,1.977-2.964,3.793
		c0.026,1.766,1.27,3.287,2.982,3.646c1.829,0.384,3.597-0.482,4.324-2.117c0.745-1.672,0.272-3.592-1.211-4.658
		c-0.384-0.276-0.427-0.516-0.337-0.933c1.108-5.178,2.2-10.359,3.298-15.541c0.02-0.094,0.021-0.217,0.248-0.172
		c0.119,1.267,0.226,2.553,0.362,3.835c0.476,4.479,0.949,8.958,1.449,13.436c0.223,1.996,0.318,4.014,0.85,5.965
		c0.5,1.834,1.273,3.519,2.879,4.66c1.574,1.119,3.384,1.507,5.283,1.563c0.202,0.16,0.445,0.106,0.667,0.103
		c2.2-0.041,4.4,0.08,6.602-0.097c2.798-0.223,5.198-1.293,7.265-3.167c1.11-1.006,1.93-2.251,2.744-3.477
		c1.732-2.607,2.95-5.506,4.502-8.218c0.62-1.084,1.181-2.2,1.753-3.311c1.398-2.713,2.898-5.372,4.282-8.094
		c0.308-0.607,0.57-1.277,1.065-1.79c0.159,0.128,0.121,0.265,0.098,0.376c-0.356,1.781-0.658,3.575-1.097,5.335
		c-0.527,2.109-0.926,4.246-1.371,6.37c-0.565,2.7-1.219,5.383-1.691,8.101c-0.138,0.795-0.521,1.092-1.221,1.331
		c-1.526,0.526-2.361,1.664-2.52,3.27c-0.161,1.624,0.526,2.923,1.871,3.712c1.75,1.026,4.096,0.75,5.444-1.569
		c0.755-1.3,0.657-3.569-1.125-4.875c-0.272-0.198-0.367-0.429-0.297-0.756c0.215-1,0.414-2.003,0.626-3.002
		c0.312-1.47,0.624-2.938,0.948-4.406c0.783-3.549,1.487-7.115,2.239-10.673c0.462-2.187,0.975-4.364,1.414-6.555
		c0.112-0.561,0.16-1.202-0.276-1.685C103.579,162.177,101.5,162.347,100.991,163.317 M56.124,187.885
		c-0.936,0.012-1.655-0.682-1.651-1.591c0.004-0.88,0.715-1.581,1.604-1.583c0.919-0.002,1.593,0.657,1.596,1.563
		C57.676,187.199,57.027,187.874,56.124,187.885 M97.371,194.677c-0.981,0.015-1.52-0.563-1.592-1.54
		c-0.066-0.91,0.788-1.56,1.515-1.594c0.805-0.038,1.55,0.71,1.556,1.541C98.858,194.01,98.251,194.664,97.371,194.677"/>
	<path clip-path="url(#SVGID_2_)" fill="#FFFFFF" d="M101.165,147.567c-0.985,0.344-1.651,1.049-2.036,2.002
		c-0.214,0.531-0.536,0.811-1.112,0.96c-1.188,0.312-2.208,0.976-3.103,1.815c-1.964,1.846-3.09,4.246-4.304,6.582
		c-1.369,2.632-2.708,5.279-4.043,7.929c-0.61,1.209-1.328,2.364-1.829,3.627c-0.166,0.129-0.235,0.306-0.251,0.509
		c-0.164,0.126-0.246,0.295-0.255,0.501c-0.076,0.025-0.109,0.08-0.105,0.159c-0.244,0.479-0.483,0.96-0.732,1.438
		c-1.516,2.917-3.033,5.834-4.555,8.749c-0.109,0.207-0.134,0.563-0.464,0.508c-0.336-0.057-0.229-0.405-0.251-0.629
		c-0.257-2.587-0.5-5.176-0.748-7.764c-0.4-4.172-0.789-8.347-1.209-12.518c-0.208-2.063-0.278-4.141-0.706-6.179
		c-0.423-2.02-1.267-3.731-3.322-4.555c-0.274-0.108-0.273-0.346-0.343-0.556c-0.443-1.342-1.263-2.246-2.691-2.62
		c-2.57-0.675-5.024,1.268-4.814,3.872c0.135,1.673,1.196,2.989,2.772,3.442c1.603,0.459,3.244-0.127,4.226-1.587
		c0.279-0.416,0.437-0.357,0.752-0.096c0.909,0.755,1.19,1.81,1.354,2.892c0.332,2.197,0.467,4.418,0.681,6.63
		c0.442,4.567,0.89,9.136,1.334,13.705c0.213,2.189,0.419,4.382,0.633,6.571c0.066,0.673,0.337,1.284,1.006,1.471
		c1.274,0.353,2.831,0.313,3.565-1.197c1.318-2.711,2.745-5.368,4.127-8.048c0.193-0.231,0.359-0.475,0.381-0.787
		c0.318-0.261,0.417-0.64,0.537-1.007c0.025-0.037,0.051-0.073,0.077-0.11c0.585-0.869,0.97-1.846,1.471-2.76
		c2.066-3.772,3.896-7.668,6.006-11.42c0.775-1.377,1.407-2.838,2.364-4.107c0.781-1.036,1.776-1.809,3.054-2.169
		c0.297-0.084,0.454-0.055,0.639,0.267c0.804,1.395,2.085,2.099,3.656,1.967c2.324-0.196,3.768-1.998,3.551-4.33
		C106.231,148.074,103.76,146.658,101.165,147.567 M68.143,152.754c-0.931,0.008-1.646-0.691-1.643-1.605
		c0.003-0.899,0.673-1.54,1.611-1.541s1.607,0.637,1.613,1.537C69.729,152.023,69.018,152.746,68.143,152.754 M102.581,152.741
		c-0.786-0.001-1.497-0.741-1.488-1.548c0.01-0.896,0.707-1.6,1.586-1.601c0.866-0.001,1.47,0.651,1.471,1.59
		C104.151,152.119,103.523,152.742,102.581,152.741"/>
	<path clip-path="url(#SVGID_2_)" fill="#FFFFFF" d="M111.161,154.904c1.281,0.344,2.837-0.261,3.687-1.435
		c0.443-0.613,0.585-0.605,1.069-0.028c0.711,0.848,0.568,1.846,0.496,2.814c-0.129,1.756-0.547,3.463-0.927,5.177
		c-0.492,2.223-0.969,4.45-1.421,6.683c-0.23,1.136-0.537,2.26-0.638,3.421c0.196,0.021,0.443,0.046,0.677,0.071
		c-0.766-0.167,0.106,0.003,0.521-0.026c0.368-0.023,0.734-0.053,1.103-0.066c0.237-1.087,0.468-2.176,0.7-3.264
		c0.643-3.001,1.253-6.008,1.92-9.003c0.367-1.649,0.519-3.316,0.336-4.981c-0.169-1.545-0.863-2.829-2.399-3.488
		c-0.417-0.179-0.686-0.484-0.871-0.926c-0.271-0.648-0.582-1.304-1.268-1.648c-1.323-1.035-2.926-1.147-4.339-0.307
		c-1.366,0.813-2.067,2.377-1.786,3.983C108.288,153.407,109.512,154.585,111.161,154.904 M111.119,149.706
		c0.84-0.289,1.764-0.155,2.208,0.852c0.193,1.064-0.044,1.563-1.028,2.168c0.299,0.297,0.41,0.646,0.454,1.017
		c-0.044-0.37-0.155-0.72-0.454-1.017c-0.038,0.002-0.076,0.007-0.114,0.016l-0.638,0.018c-0.821-0.215-1.303-0.722-1.366-1.438
		C110.119,150.623,110.475,149.929,111.119,149.706"/>
	<path clip-path="url(#SVGID_2_)" fill="#FFFFFF" d="M53.828,153.021c0.468-0.256,0.745-0.165,1.015,0.296
		c0.523,0.895,1.359,1.441,2.344,1.641c2.554,0.517,4.898-1.464,4.734-4.037c-0.108-1.687-1.528-3.539-3.655-3.632
		c-1.708-0.073-3.316,1.08-3.9,2.659c-0.165,0.448-0.444,0.624-0.87,0.784c-1.462,0.552-2.649,1.46-3.377,2.886
		c-0.039,0.052-0.078,0.103-0.116,0.153c-0.563,0.919-0.947,1.915-1.247,2.945c-0.669,2.295-1.084,4.647-1.58,6.982
		c-0.745,3.512-1.506,7.019-2.259,10.526c-1.008,4.702-2.018,9.404-3.022,14.107c-0.135,0.632-0.231,1.061-1.116,1.229
		c-1.893,0.361-3.019,2.637-2.488,4.575c0.536,1.955,2.569,3.204,4.465,2.747c1.551-0.373,2.577-1.331,2.936-2.866
		c0.378-1.615-0.154-2.984-1.497-3.98c-0.293-0.217-0.355-0.392-0.265-0.721c0.394-1.436,0.576-2.916,0.903-4.369
		c0.993-4.412,1.913-8.841,2.853-13.265c0.858-4.038,1.704-8.078,2.556-12.118c0.182-0.323,0.265-0.669,0.243-1.04
		c0.157-0.132,0.192-0.327,0.225-0.506c0.138-0.747,0.401-1.454,0.696-2.146C51.915,154.676,52.65,153.665,53.828,153.021
		 M58.085,149.587c0.826,0.017,1.473,0.696,1.478,1.554c0.005,0.871-0.671,1.582-1.512,1.591c-0.853,0.01-1.625-0.715-1.618-1.519
		C56.44,150.299,57.181,149.569,58.085,149.587 M42.022,194.757c-0.912,0.012-1.663-0.756-1.646-1.684
		c0.016-0.821,0.748-1.533,1.59-1.546c0.91-0.013,1.621,0.696,1.621,1.615C43.587,194.022,42.887,194.744,42.022,194.757
		 M49.619,158.028c-0.003,0.081-0.045,0.123-0.126,0.125C49.574,158.151,49.616,158.109,49.619,158.028
		c0.244,0.008,0.35-0.145,0.406-0.354c-0.019-0.016-0.036-0.032-0.052-0.049c0.016,0.017,0.033,0.033,0.052,0.049
		c0.182-0.006,0.295,0.024,0.363,0.08c-0.068-0.056-0.181-0.086-0.363-0.079C49.969,157.884,49.863,158.036,49.619,158.028"/>
	<polygon clip-path="url(#SVGID_2_)" fill="#FFFFFF" points="107.107,201.148 109.667,201.148 108.916,209.738 106.356,209.738 	"/>
	<polygon clip-path="url(#SVGID_2_)" fill="#FFFFFF" points="110.689,201.148 113.068,201.148 116.458,205.689 116.854,201.148 
		119.359,201.148 118.608,209.738 116.375,209.738 112.855,205.025 112.443,209.738 109.938,209.738 	"/>
	<polygon clip-path="url(#SVGID_2_)" fill="#FFFFFF" points="122.392,203.234 119.637,203.234 119.818,201.148 127.872,201.148 
		127.69,203.234 124.936,203.234 124.367,209.738 121.823,209.738 	"/>
	<polygon clip-path="url(#SVGID_2_)" fill="#FFFFFF" points="128.331,201.148 135.702,201.148 135.525,203.173 130.659,203.173 
		130.545,204.474 134.952,204.474 134.788,206.352 130.381,206.352 130.262,207.713 135.194,207.713 135.018,209.738 
		127.58,209.738 	"/>
	<path clip-path="url(#SVGID_2_)" fill="#FFFFFF" d="M136.424,201.148h4.342c0.708,0,1.299,0.082,1.775,0.246
		c0.475,0.163,0.853,0.393,1.134,0.687c0.499,0.491,0.712,1.157,0.638,2l-0.003,0.024c-0.057,0.663-0.276,1.211-0.655,1.645
		c-0.379,0.434-0.866,0.765-1.464,0.994l1.929,2.994h-2.938l-1.623-2.603h-0.026h-1.088l-0.227,2.603h-2.545L136.424,201.148z
		 M140.287,205.271c0.437,0,0.781-0.093,1.034-0.276c0.252-0.184,0.392-0.432,0.419-0.743l0.002-0.023
		c0.03-0.345-0.07-0.6-0.3-0.769c-0.23-0.167-0.559-0.251-0.988-0.251h-1.665l-0.181,2.063H140.287z"/>
	<polygon clip-path="url(#SVGID_2_)" fill="#FFFFFF" points="145.199,201.148 147.578,201.148 150.968,205.689 151.364,201.148 
		153.869,201.148 153.118,209.738 150.884,209.738 147.365,205.025 146.953,209.738 144.448,209.738 	"/>
	<polygon clip-path="url(#SVGID_2_)" fill="#FFFFFF" points="154.84,201.148 162.211,201.148 162.034,203.173 157.168,203.173 
		157.054,204.474 161.461,204.474 161.297,206.352 156.89,206.352 156.771,207.713 161.703,207.713 161.527,209.738 
		154.089,209.738 	"/>
	<polygon clip-path="url(#SVGID_2_)" fill="#FFFFFF" points="164.995,203.234 162.24,203.234 162.422,201.148 170.475,201.148 
		170.294,203.234 167.539,203.234 166.97,209.738 164.426,209.738 	"/>
	<polygon clip-path="url(#SVGID_2_)" fill="#FFFFFF" points="173.912,201.148 181.258,201.148 181.076,203.234 176.275,203.234 
		176.148,204.683 180.489,204.683 180.315,206.67 175.975,206.67 175.706,209.738 173.161,209.738 	"/>
	<polygon clip-path="url(#SVGID_2_)" fill="#FFFFFF" points="181.808,201.148 184.367,201.148 183.616,209.738 181.057,209.738 	"/>
	<path clip-path="url(#SVGID_2_)" fill="#FFFFFF" d="M185.389,201.148h4.701c0.576,0,1.064,0.065,1.463,0.195
		c0.398,0.131,0.722,0.324,0.97,0.577c0.168,0.172,0.296,0.373,0.38,0.601c0.086,0.23,0.114,0.491,0.089,0.786l-0.002,0.025
		c-0.044,0.499-0.212,0.901-0.504,1.208s-0.649,0.542-1.073,0.706c0.547,0.172,0.971,0.42,1.271,0.743
		c0.301,0.321,0.424,0.773,0.374,1.354l-0.002,0.026c-0.065,0.744-0.42,1.325-1.063,1.742c-0.645,0.418-1.518,0.626-2.619,0.626
		h-4.735L185.389,201.148z M189.251,207.823c0.394,0,0.701-0.066,0.924-0.202c0.222-0.135,0.343-0.329,0.365-0.583l0.002-0.024
		c0.021-0.237-0.063-0.425-0.253-0.563c-0.188-0.141-0.497-0.209-0.926-0.209h-1.941l-0.139,1.582H189.251z M189.169,204.572
		c0.394,0,0.698-0.063,0.914-0.185c0.216-0.124,0.336-0.311,0.357-0.564l0.003-0.024c0.021-0.238-0.06-0.419-0.241-0.546
		c-0.182-0.126-0.464-0.191-0.849-0.191H187.7l-0.132,1.511H189.169z"/>
	<path clip-path="url(#SVGID_2_)" fill="#FFFFFF" d="M194.111,201.148h4.342c0.708,0,1.3,0.082,1.775,0.246
		c0.475,0.163,0.854,0.393,1.134,0.687c0.499,0.491,0.712,1.157,0.639,2l-0.003,0.024c-0.058,0.663-0.276,1.211-0.655,1.645
		s-0.866,0.765-1.464,0.994l1.929,2.994h-2.938l-1.623-2.603h-0.025h-1.088l-0.228,2.603h-2.545L194.111,201.148z M197.975,205.271
		c0.437,0,0.781-0.093,1.034-0.276c0.252-0.184,0.392-0.432,0.419-0.743l0.002-0.023c0.03-0.345-0.07-0.6-0.3-0.769
		c-0.23-0.167-0.56-0.251-0.988-0.251h-1.665l-0.181,2.063H197.975z"/>
	<path clip-path="url(#SVGID_2_)" fill="#FFFFFF" d="M206.065,201.088h2.454l3.152,8.65h-2.729l-0.535-1.534h-3.542l-0.789,1.534
		h-2.676L206.065,201.088z M207.835,206.363l-0.811-2.441l-1.25,2.441H207.835z"/>
	<path clip-path="url(#SVGID_2_)" fill="#FFFFFF" d="M219.487,209.909c-0.709,0-1.353-0.115-1.937-0.349
		c-0.584-0.235-1.076-0.55-1.478-0.951c-0.402-0.401-0.705-0.871-0.907-1.412c-0.201-0.54-0.276-1.117-0.223-1.729l0.003-0.025
		c0.054-0.614,0.229-1.193,0.525-1.737c0.297-0.544,0.686-1.018,1.168-1.424c0.481-0.403,1.034-0.723,1.657-0.956
		c0.624-0.232,1.29-0.35,1.999-0.35c0.708,0,1.354,0.117,1.936,0.35c0.584,0.233,1.076,0.551,1.479,0.951
		c0.401,0.4,0.704,0.872,0.906,1.412c0.201,0.539,0.276,1.115,0.223,1.729l-0.002,0.024c-0.054,0.613-0.229,1.192-0.526,1.736
		s-0.686,1.018-1.167,1.423c-0.481,0.406-1.034,0.723-1.657,0.958C220.862,209.794,220.195,209.909,219.487,209.909
		 M219.695,207.763c0.351,0,0.676-0.063,0.976-0.186c0.3-0.122,0.561-0.288,0.78-0.497c0.221-0.208,0.399-0.45,0.537-0.729
		c0.139-0.279,0.222-0.573,0.248-0.883l0.003-0.025c0.026-0.311-0.004-0.605-0.094-0.884c-0.089-0.279-0.23-0.524-0.422-0.737
		c-0.192-0.211-0.427-0.381-0.706-0.508c-0.277-0.126-0.592-0.191-0.943-0.191c-0.351,0-0.674,0.063-0.969,0.186
		c-0.296,0.123-0.557,0.288-0.781,0.496c-0.224,0.209-0.403,0.452-0.537,0.729c-0.134,0.279-0.214,0.574-0.241,0.885l-0.002,0.024
		c-0.027,0.311,0.003,0.605,0.094,0.882c0.09,0.279,0.229,0.525,0.416,0.737c0.187,0.214,0.419,0.383,0.698,0.51
		C219.03,207.698,219.345,207.763,219.695,207.763 M220.988,198.302l2.261,0.698l-2.065,1.572h-1.757L220.988,198.302z"/>
	<path clip-path="url(#SVGID_2_)" fill="#FFFFFF" d="M225.881,201.147h3.935c0.577,0,1.097,0.068,1.557,0.204
		c0.461,0.134,0.846,0.33,1.156,0.588c0.309,0.257,0.537,0.575,0.684,0.952c0.146,0.376,0.198,0.801,0.157,1.276l-0.002,0.023
		c-0.045,0.507-0.183,0.953-0.412,1.337c-0.231,0.386-0.532,0.708-0.905,0.971c-0.372,0.262-0.808,0.458-1.304,0.589
		s-1.029,0.194-1.598,0.194h-1.259l-0.215,2.455h-2.545L225.881,201.147z M229.259,205.419c0.455,0,0.82-0.102,1.096-0.304
		c0.275-0.2,0.428-0.474,0.458-0.819l0.003-0.024c0.032-0.371-0.072-0.651-0.313-0.845c-0.24-0.195-0.594-0.29-1.057-0.29h-1.193
		l-0.199,2.282H229.259z"/>
	<polygon clip-path="url(#SVGID_2_)" fill="#FFFFFF" points="236.114,203.234 233.359,203.234 233.541,201.148 241.594,201.148 
		241.413,203.234 238.658,203.234 238.089,209.738 235.545,209.738 	"/>
	<polygon clip-path="url(#SVGID_2_)" fill="#FFFFFF" points="242.105,201.148 244.664,201.148 243.913,209.738 241.354,209.738 	"/>
	<path clip-path="url(#SVGID_2_)" fill="#FFFFFF" d="M249.34,209.91c-0.655,0-1.263-0.11-1.82-0.331
		c-0.558-0.223-1.03-0.529-1.421-0.927c-0.389-0.396-0.685-0.866-0.886-1.411c-0.202-0.544-0.275-1.137-0.22-1.772l0.003-0.026
		c0.054-0.621,0.229-1.204,0.52-1.747c0.293-0.545,0.672-1.019,1.136-1.425c0.463-0.403,1-0.721,1.611-0.95
		c0.61-0.229,1.264-0.345,1.965-0.345c0.472,0,0.896,0.043,1.273,0.129c0.378,0.086,0.719,0.209,1.023,0.368
		c0.306,0.161,0.578,0.351,0.816,0.571c0.238,0.22,0.447,0.463,0.625,0.724l-2.036,1.388c-0.236-0.312-0.502-0.558-0.802-0.736
		c-0.299-0.181-0.671-0.271-1.117-0.271c-0.324,0-0.624,0.06-0.901,0.179c-0.276,0.118-0.521,0.279-0.73,0.483
		s-0.382,0.446-0.516,0.725c-0.134,0.277-0.214,0.572-0.241,0.884l-0.002,0.023c-0.028,0.319,0,0.619,0.085,0.902
		s0.214,0.526,0.388,0.73c0.175,0.204,0.391,0.365,0.646,0.483c0.256,0.12,0.546,0.18,0.87,0.18c0.236,0,0.454-0.024,0.656-0.074
		c0.2-0.049,0.386-0.121,0.555-0.214c0.171-0.096,0.333-0.204,0.49-0.332c0.154-0.126,0.31-0.269,0.462-0.423l1.804,1.276
		c-0.243,0.278-0.504,0.536-0.782,0.772s-0.59,0.44-0.934,0.612c-0.342,0.174-0.722,0.308-1.136,0.406
		C250.31,209.86,249.848,209.91,249.34,209.91"/>
	<path clip-path="url(#SVGID_2_)" fill="#FFFFFF" d="M257.786,201.088h2.453l3.152,8.65h-2.729l-0.535-1.534h-3.542l-0.789,1.534
		h-2.676L257.786,201.088z M259.555,206.363l-0.81-2.441l-1.25,2.441H259.555z"/>
	<path clip-path="url(#SVGID_2_)" fill="#FFFFFF" d="M106.62,193.109c0,0-3.216-0.861-1.961-5.672l1.84-8.14l0.721-2.555h-3.803
		l-2.324,12.535c0,0,1.921,2.435,1.528,3.831H106.62z"/>
</g>
</svg>